<?xml version="1.0" standalone="no"?>
<!DOCTYPE svg PUBLIC "-//W3C//DTD SVG 20010904//EN"
 "http://www.w3.org/TR/2001/REC-SVG-20010904/DTD/svg10.dtd">
<svg version="1.0" xmlns="http://www.w3.org/2000/svg"
 width="500.000000pt" height="500.000000pt" viewBox="0 0 500.000000 500.000000"
 preserveAspectRatio="xMidYMid meet">
<metadata>
Created by potrace 1.11, written by Peter Selinger 2001-2013
</metadata>
<g transform="translate(0.000000,500.000000) scale(0.100000,-0.100000)"
fill="#000000" stroke="none">
<path d="M1 4653 c1 -318 2 -342 14 -277 30 165 118 479 170 607 7 15 -1 17
-89 17 l-96 0 1 -347z"/>
<path d="M237 4960 c-9 -22 -17 -47 -17 -55 0 -8 -4 -15 -9 -15 -5 0 -12 -19
-16 -42 -4 -24 -10 -45 -14 -48 -7 -5 -25 -65 -43 -140 -6 -25 -14 -49 -18
-55 -4 -5 -11 -35 -15 -65 -4 -30 -10 -59 -14 -65 -9 -15 -40 -201 -57 -350
-27 -234 -20 -599 16 -855 93 -645 418 -1300 890 -1794 117 -122 402 -374 490
-432 36 -23 79 -57 95 -75 35 -38 34 -37 -90 45 -445 298 -835 733 -1086 1211
-137 261 -256 591 -313 871 l-35 169 0 -1632 -1 -1633 2384 0 2384 0 116 129
116 129 0 2371 0 2371 -2373 0 -2372 0 -18 -40z m883 -2160 l0 -40 -185 0
-185 0 0 -105 0 -105 175 0 175 0 0 -40 0 -40 -175 0 -175 0 0 -110 0 -110
185 0 185 0 0 -40 0 -40 -230 0 -230 0 0 335 0 335 230 0 230 0 0 -40z m565
29 c54 -15 101 -62 122 -123 22 -62 24 -324 4 -394 -16 -57 -70 -116 -119
-130 -24 -8 -116 -12 -241 -12 l-201 0 0 335 0 335 198 0 c110 0 215 -5 237
-11z m669 -256 c54 -147 101 -273 105 -281 5 -8 46 94 107 265 l99 278 52 3
52 3 -32 -88 c-17 -49 -72 -200 -122 -336 l-90 -247 -61 0 -61 0 -122 330
c-66 181 -121 332 -121 335 0 3 22 5 49 5 l48 0 97 -267z m951 241 c26 -13 49
-37 65 -65 24 -42 25 -53 28 -226 4 -212 -7 -274 -58 -317 -44 -37 -90 -46
-230 -46 -144 0 -187 9 -234 50 -50 45 -61 96 -61 295 0 188 11 239 63 287 44
41 76 47 237 45 130 -2 155 -5 190 -23z m315 -309 l0 -335 -45 0 -45 0 0 335
0 335 45 0 45 0 0 -335z m605 324 c54 -15 101 -62 122 -123 22 -62 24 -324 4
-394 -16 -57 -70 -116 -119 -130 -24 -8 -116 -12 -241 -12 l-201 0 0 335 0
335 198 0 c110 0 215 -5 237 -11z m-2065 -334 l0 -45 -135 0 -135 0 0 45 0 45
135 0 135 0 0 -45z"/>
<path d="M1340 2505 l0 -257 154 4 c138 3 158 5 183 24 46 34 55 80 51 254 -4
224 -4 223 -230 228 l-158 4 0 -257z"/>
<path d="M2973 2749 c-58 -17 -65 -44 -61 -264 4 -254 -7 -240 194 -240 l146
0 23 27 c31 37 38 87 33 264 -5 172 -13 199 -67 214 -44 12 -224 12 -268 -1z"/>
<path d="M3880 2505 l0 -257 154 4 c138 3 158 5 183 24 46 34 55 80 51 254 -4
224 -4 223 -230 228 l-158 4 0 -257z"/>
</g>
</svg>
